<svg xmlns="http://www.w3.org/2000/svg" width="150" height="230" viewBox="0 0 150 230"><defs><linearGradient id="j" x1="0" y1="0" x2="1" y2="1"><stop stop-color="#526b38"/><stop offset="1" stop-color="#30462a"/></linearGradient><linearGradient id="p" x1="0" y1="0" x2="0" y2="1"><stop stop-color="#8b5f38"/><stop offset="1" stop-color="#4d3324"/></linearGradient></defs><ellipse cx="75" cy="218" rx="43" ry="8" fill="#34452b" opacity=".45"/><path d="M47 181 L69 181 L66 214 Q59 220 42 216 L42 207Z" fill="#332820" stroke="#211b18" stroke-width="3"/><path d="M82 181 L103 181 L108 207 Q108 216 91 216 L84 210Z" fill="#332820" stroke="#211b18" stroke-width="3"/><path d="M47 125 L101 125 L98 184 L76 188 L72 155 L67 188 L45 184Z" fill="url(#p)" stroke="#34261e" stroke-width="3"/><path d="M43 76 Q75 63 107 76 L100 133 Q75 143 49 133Z" fill="url(#j)" stroke="#273523" stroke-width="3"/><path d="M67 76 L75 91 L83 76 L91 82 L83 99 L75 92 L67 99 L59 82Z" fill="#d2c6a4" opacity=".95"/><path d="M46 82 Q33 91 37 124 L49 127 L57 96Z" fill="#526b38" stroke="#273523" stroke-width="3"/><path d="M104 82 Q117 91 113 124 L101 127 L93 96Z" fill="#526b38" stroke="#273523" stroke-width="3"/><path d="M67 67 L83 67 L83 80 Q75 86 67 80Z" fill="#c98d62"/><ellipse cx="75" cy="48" rx="28" ry="31" fill="#d59a6a" stroke="#5a3c2b" stroke-width="2"/><circle cx="75" cy="16" r="18" fill="#2a211d"/><path d="M49 45 Q46 20 64 11 Q87 0 104 22 Q105 40 96 48 Q95 25 79 25 Q62 25 54 50Z" fill="#2a211d"/><path d="M51 43 Q42 62 54 72" fill="none" stroke="#2a211d" stroke-width="8" stroke-linecap="round"/><path d="M97 42 Q108 56 98 70" fill="none" stroke="#2a211d" stroke-width="7" stroke-linecap="round"/><path d="M62 48 Q67 44 71 48 M79 48 Q84 44 88 48" stroke="#3a2a22" stroke-width="2" fill="none"/><circle cx="68" cy="51" r="2" fill="#36584d"/><circle cx="83" cy="51" r="2" fill="#36584d"/><path d="M70 63 Q75 66 80 63" stroke="#704535" stroke-width="2" fill="none"/><path d="M63 75 Q75 88 87 75" fill="none" stroke="#2d4032" stroke-width="2"/><circle cx="75" cy="86" r="4" fill="#557a62" stroke="#d0ad59" stroke-width="1"/><path d="M48 129 H102" stroke="#4a3426" stroke-width="7"/><rect x="42" y="128" width="13" height="31" rx="3" fill="#6e4c32" stroke="#38291f" stroke-width="2"/><path d="M48 133 L51 148" stroke="#d0a76b" stroke-width="2"/></svg>